<svg width="100" height="100" viewBox="0 0 100 100" fill="none" xmlns="http://www.w3.org/2000/svg">
<path fill-rule="evenodd" clip-rule="evenodd" d="M50 0C22.3858 0 0 22.3858 0 50C0 77.6142 22.3858 100 50 100C77.6142 100 100 77.6142 100 50C100 22.3858 77.6142 0 50 0ZM39.007 23.4947C41.851 23.3652 42.7601 23.3336 49.9985 23.3335C57.2392 23.3336 58.145 23.3652 60.9889 23.4947C63.8279 23.6247 65.7668 24.0741 67.4668 24.7336C69.2224 25.4141 70.7057 26.3252 72.189 27.8086C73.6724 29.2908 74.5835 30.7786 75.2669 32.5325C75.9224 34.2281 76.3724 36.1659 76.5058 39.0048C76.6335 41.8493 76.6669 42.7582 76.6669 50.0005C76.6669 57.2428 76.6335 58.1495 76.5058 60.9939C76.3724 63.8317 75.9224 65.7701 75.2669 67.4662C74.5835 69.2196 73.6724 70.7074 72.189 72.1896C70.7074 73.673 69.2218 74.5863 67.4684 75.2674C65.7718 75.9269 63.8317 76.3763 60.9928 76.5063C58.1483 76.6358 57.2422 76.6674 49.9994 76.6674C42.7576 76.6674 41.8493 76.6358 39.0048 76.5063C36.1665 76.3763 34.2281 75.9269 32.5314 75.2674C30.7786 74.5863 29.2908 73.673 27.8091 72.1896C26.3264 70.7074 25.4152 69.2196 24.7336 67.4657C24.0747 65.7701 23.6252 63.8323 23.4947 60.9934C23.3658 58.1489 23.3335 57.2428 23.3335 50.0005C23.3335 42.7582 23.3669 41.8487 23.4941 39.0043C23.6219 36.1665 24.0719 34.2281 24.733 32.532C25.4163 30.7786 26.3275 29.2908 27.8108 27.8086C29.2931 26.3258 30.7808 25.4147 32.5348 24.7336C34.2303 24.0741 36.1681 23.6247 39.007 23.4947ZM49.9985 23.3335C49.9999 23.3335 50.0013 23.3335 50.0027 23.3335H49.9944C49.9958 23.3335 49.9972 23.3335 49.9985 23.3335Z" fill="white"/>
<path fill-rule="evenodd" clip-rule="evenodd" d="M47.6107 28.1395C48.0752 28.1388 48.5749 28.139 49.1141 28.1392L50.0029 28.1395C57.123 28.1395 57.9669 28.165 60.7786 28.2928C63.3786 28.4117 64.7898 28.8462 65.7298 29.2112C66.9742 29.6945 67.8615 30.2723 68.7943 31.2056C69.7276 32.139 70.3054 33.0279 70.7898 34.2723C71.1548 35.2112 71.5898 36.6223 71.7082 39.2224C71.8359 42.0335 71.8637 42.878 71.8637 49.9947C71.8637 57.1115 71.8359 57.9559 71.7082 60.767C71.5893 63.3671 71.1548 64.7782 70.7898 65.7171C70.3065 66.9616 69.7276 67.8477 68.7943 68.7805C67.8609 69.7138 66.9748 70.2916 65.7298 70.7749C64.7909 71.1416 63.3786 71.5749 60.7786 71.6938C57.9675 71.8216 57.123 71.8494 50.0029 71.8494C42.8823 71.8494 42.0384 71.8216 39.2273 71.6938C36.6272 71.5738 35.2161 71.1394 34.2756 70.7744C33.0311 70.291 32.1422 69.7132 31.2089 68.7799C30.2755 67.8466 29.6977 66.9599 29.2133 65.7149C28.8483 64.776 28.4133 63.3648 28.2949 60.7648C28.1672 57.9537 28.1416 57.1092 28.1416 49.988C28.1416 42.8669 28.1672 42.0268 28.2949 39.2157C28.4138 36.6157 28.8483 35.2046 29.2133 34.2645C29.6966 33.0201 30.2755 32.1312 31.2089 31.1978C32.1422 30.2645 33.0311 29.6867 34.2756 29.2023C35.2156 28.8356 36.6272 28.4023 39.2273 28.2828C41.6873 28.1717 42.6406 28.1384 47.6107 28.1328V28.1395ZM64.2375 32.5672C62.4709 32.5672 61.0375 33.9989 61.0375 35.7661C61.0375 37.5328 62.4709 38.9662 64.2375 38.9662C66.0042 38.9662 67.4376 37.5328 67.4376 35.7661C67.4376 33.9994 66.0042 32.5661 64.2375 32.5661V32.5672ZM36.3082 50.0004C36.3082 42.4375 42.44 36.3058 50.0028 36.3058H50.0023C57.5651 36.3058 63.6952 42.4375 63.6952 50.0004C63.6952 57.5633 57.5657 63.6922 50.0028 63.6922C42.44 63.6922 36.3082 57.5633 36.3082 50.0004Z" fill="white"/>
<path d="M50.0023 41.1113C54.9112 41.1113 58.8912 45.0908 58.8912 50.0003C58.8912 54.9093 54.9112 58.8893 50.0023 58.8893C45.0928 58.8893 41.1133 54.9093 41.1133 50.0003C41.1133 45.0908 45.0928 41.1113 50.0023 41.1113V41.1113Z" fill="white"/>
</svg>
