<svg width="40" height="40" viewBox="0 0 40 40" fill="none" xmlns="http://www.w3.org/2000/svg">
<path fill-rule="evenodd" clip-rule="evenodd" d="M20 0C8.9543 0 0 8.9543 0 20C0 31.0457 8.9543 40 20 40C31.0457 40 40 31.0457 40 20C40 8.9543 31.0457 0 20 0ZM28.6147 15.5582H22.9653V13.9397H28.6147V15.5582ZM28.1167 16.9169C27.4368 16.6162 26.673 16.4653 25.8238 16.4653C24.3951 16.4653 23.2349 16.912 22.338 17.7992C21.4437 18.6889 20.9959 19.9672 20.9959 21.634C20.9959 23.411 21.4901 24.6954 22.4848 25.4837C23.4745 26.2732 24.6196 26.6667 25.9179 26.6667C27.4895 26.6667 28.7125 26.1989 29.5855 25.2647C30.1449 24.6756 30.461 24.0953 30.53 23.5261H27.9273C27.7768 23.8082 27.6012 24.0285 27.4017 24.1881C27.0392 24.4814 26.5663 24.6286 25.9881 24.6286C25.4387 24.6286 24.9709 24.5074 24.582 24.2661C23.9398 23.8787 23.6036 23.2019 23.561 22.2379H30.6642C30.6755 21.4076 30.6479 20.7691 30.5789 20.3285C30.461 19.5749 30.2026 18.9117 29.8 18.34C29.3584 17.6916 28.7978 17.2164 28.1167 16.9169ZM15.704 13.3333C17.312 13.3568 18.4497 13.8184 19.1207 14.7193C19.5234 15.2724 19.7253 15.9332 19.7253 16.7041C19.7253 17.4973 19.5234 18.137 19.1157 18.6196C18.8874 18.8894 18.5525 19.1369 18.1097 19.3596C18.7821 19.6022 19.2888 19.9845 19.6337 20.508C19.9749 21.0302 20.1468 21.6662 20.1468 22.4136C20.1468 23.1845 19.9511 23.8763 19.5585 24.4876C19.3101 24.8922 18.9991 25.2337 18.6253 25.5109C18.2051 25.8289 17.7096 26.0455 17.1364 26.1643C16.5632 26.2818 15.9435 26.3387 15.2737 26.3387H9.3333V13.3333H15.704Z" fill="black"/>
<path fill-rule="evenodd" clip-rule="evenodd" d="M11.9609 15.5917H14.8308C15.4617 15.5917 15.981 15.6597 16.3899 15.7946C16.8615 15.9901 17.0974 16.3898 17.0974 16.9974C17.0974 17.5419 16.918 17.923 16.5618 18.1383C16.203 18.3536 15.7377 18.4613 15.167 18.4613H11.9609V15.5917ZM24.3034 19.0899C24.6634 18.7236 25.1726 18.5405 25.8249 18.5405C26.427 18.5405 26.9299 18.7125 27.3388 19.0577C27.7427 19.4054 27.971 19.9103 28.0174 20.5785H23.6236C23.7164 19.9524 23.9434 19.4562 24.3034 19.0899ZM15.2071 20.6132H11.9609V24.0817H15.1619C15.7339 24.0817 16.1805 24.005 16.4978 23.8528C17.076 23.5682 17.3645 23.0287 17.3645 22.2293C17.3645 21.5512 17.0861 21.0871 16.5254 20.8334C16.2118 20.6924 15.7715 20.6181 15.2071 20.6132Z" fill="black"/>
</svg>
