<svg width="40" height="40" viewBox="0 0 40 40" fill="none" xmlns="http://www.w3.org/2000/svg">
<path fill-rule="evenodd" clip-rule="evenodd" d="M20.0003 0C8.95445 0 0 8.9543 0 20C0 31.0457 8.95445 40 20.0003 40C31.0462 40 40.0007 31.0457 40.0007 20C40.0007 8.9543 31.0462 0 20.0003 0ZM15.603 9.39772C16.7408 9.34594 17.1044 9.33328 20.0013 9.33328H19.998C22.8958 9.33328 23.2581 9.34594 24.3959 9.39772C25.5315 9.44972 26.3071 9.6295 26.9871 9.89328C27.6893 10.1655 28.2827 10.53 28.876 11.1233C29.4694 11.7162 29.8338 12.3113 30.1072 13.0129C30.3694 13.6911 30.5494 14.4662 30.6027 15.6018C30.6538 16.7396 30.6672 17.1031 30.6672 20.0001C30.6672 22.897 30.6538 23.2596 30.6027 24.3974C30.5494 25.5326 30.3694 26.3079 30.1072 26.9864C29.8338 27.6877 29.4694 28.2828 28.876 28.8757C28.2833 29.469 27.6891 29.8344 26.9877 30.1068C26.3091 30.3706 25.533 30.5504 24.3974 30.6024C23.2596 30.6542 22.8972 30.6668 20 30.6668C17.1032 30.6668 16.7399 30.6542 15.6021 30.6024C14.4667 30.5504 13.6914 30.3706 13.0127 30.1068C12.3116 29.8344 11.7164 29.469 11.1237 28.8757C10.5306 28.2828 10.1662 27.6877 9.89349 26.9861C9.62993 26.3079 9.45015 25.5328 9.39792 24.3972C9.34636 23.2594 9.33348 22.897 9.33348 20.0001C9.33348 17.1031 9.34681 16.7394 9.3977 15.6016C9.44881 14.4664 9.62882 13.6911 9.89327 13.0126C10.1666 12.3113 10.5311 11.7162 11.1244 11.1233C11.7173 10.5302 12.3124 10.1657 13.014 9.89328C13.6923 9.6295 14.4674 9.44972 15.603 9.39772Z" fill="black"/>
<path fill-rule="evenodd" clip-rule="evenodd" d="M19.0446 11.2555C19.2304 11.2552 19.4303 11.2553 19.646 11.2554L20.0015 11.2555C22.8496 11.2555 23.1872 11.2657 24.3119 11.3168C25.3519 11.3644 25.9163 11.5381 26.2924 11.6841C26.7901 11.8775 27.145 12.1086 27.5182 12.4819C27.8915 12.8553 28.1226 13.2108 28.3164 13.7086C28.4624 14.0842 28.6364 14.6486 28.6838 15.6886C28.7349 16.8131 28.746 17.1509 28.746 19.9976C28.746 22.8443 28.7349 23.182 28.6838 24.3065C28.6362 25.3465 28.4624 25.911 28.3164 26.2865C28.1231 26.7843 27.8915 27.1388 27.5182 27.5119C27.1448 27.8852 26.7904 28.1163 26.2924 28.3097C25.9168 28.4563 25.3519 28.6297 24.3119 28.6772C23.1874 28.7283 22.8496 28.7394 20.0015 28.7394C17.1532 28.7394 16.8157 28.7283 15.6912 28.6772C14.6512 28.6292 14.0867 28.4554 13.7105 28.3094C13.2127 28.1161 12.8571 27.885 12.4838 27.5116C12.1104 27.1383 11.8793 26.7836 11.6855 26.2856C11.5395 25.9101 11.3655 25.3456 11.3182 24.3056C11.2671 23.1812 11.2568 22.8434 11.2568 19.9949C11.2568 17.1464 11.2671 16.8104 11.3182 15.686C11.3657 14.646 11.5395 14.0815 11.6855 13.7055C11.8789 13.2077 12.1104 12.8522 12.4838 12.4788C12.8571 12.1055 13.2127 11.8744 13.7105 11.6806C14.0865 11.5339 14.6512 11.3606 15.6912 11.3128C16.6752 11.2684 17.0566 11.255 19.0446 11.2528V11.2555ZM25.6955 13.0267C24.9888 13.0267 24.4155 13.5994 24.4155 14.3062C24.4155 15.0129 24.9888 15.5863 25.6955 15.5863C26.4022 15.5863 26.9755 15.0129 26.9755 14.3062C26.9755 13.5996 26.4022 13.0262 25.6955 13.0262V13.0267ZM14.5236 19.9991C14.5236 16.9741 16.9763 14.5214 20.0014 14.5213C23.0265 14.5213 25.4786 16.974 25.4786 19.9991C25.4786 23.0243 23.0268 25.4759 20.0016 25.4759C16.9764 25.4759 14.5236 23.0243 14.5236 19.9991Z" fill="black"/>
<path d="M20.0015 16.4446C21.9651 16.4446 23.5571 18.0364 23.5571 20.0002C23.5571 21.9637 21.9651 23.5558 20.0015 23.5558C18.0376 23.5558 16.4458 21.9637 16.4458 20.0002C16.4458 18.0364 18.0376 16.4446 20.0015 16.4446Z" fill="black"/>
</svg>
