<svg width="100" height="100" viewBox="0 0 100 100" fill="none" xmlns="http://www.w3.org/2000/svg">
<path fill-rule="evenodd" clip-rule="evenodd" d="M50 0C22.3858 0 0 22.3858 0 50C0 77.6142 22.3858 100 50 100C77.6142 100 100 77.6142 100 50C100 22.3858 77.6142 0 50 0ZM20.0001 49.9992C20.0001 33.4574 33.4577 20 49.9998 20C66.5419 20 80.0002 33.4574 80.0002 49.9992C80.0002 66.542 66.5419 80 49.9998 80C33.4577 80 20.0001 66.542 20.0001 49.9992Z" fill="white"/>
<path fill-rule="evenodd" clip-rule="evenodd" d="M49.9997 78.6245C34.2167 78.6245 21.3759 65.7826 21.3759 49.9992C21.3759 34.2161 34.2167 21.3757 49.9997 21.3757C65.7826 21.3757 78.6238 34.2161 78.6238 49.9992C78.6238 65.7826 65.7826 78.6245 49.9997 78.6245ZM25.0001 50.3799C25.0001 60.4749 31.1215 69.2001 40.0001 73.3334L27.3046 40C25.828 43.1718 25.0001 46.6822 25.0001 50.3799ZM64.5695 42.3882C65.5346 44.1073 66.6614 46.3155 66.6614 49.5065C66.6614 51.573 65.9303 53.9497 64.9391 57.1721L64.9376 57.177C64.8698 57.3974 64.8008 57.6217 64.7307 57.8502L62.1995 66.4519L53.0299 38.707C54.5571 38.6253 55.9335 38.4618 55.9335 38.4618C57.3007 38.2972 57.1394 36.2533 55.7717 36.3347C55.7717 36.3347 51.6619 36.6628 49.0091 36.6628C46.5161 36.6628 42.3266 36.3347 42.3266 36.3347C40.9585 36.2533 40.7981 38.3795 42.1656 38.4618C42.1656 38.4618 43.4599 38.6253 44.827 38.707L48.7798 49.7249L43.2263 66.6648L33.9872 38.707C35.5159 38.6253 36.8911 38.4618 36.8911 38.4618C38.2574 38.2972 38.0958 36.2533 36.7287 36.3347C36.7287 36.3347 32.6197 36.6628 29.9664 36.6628C29.4903 36.6628 28.9292 36.651 28.3334 36.6315C32.8703 29.6251 40.6682 24.9981 49.5329 24.9981C56.1384 24.9981 62.1526 27.5672 66.6668 31.7746C66.6308 31.7723 66.5951 31.7693 66.5594 31.7663C66.4865 31.7601 66.4136 31.754 66.338 31.754C63.8456 31.754 62.0771 33.9625 62.0771 36.3347C62.0771 38.2943 63.101 39.9757 64.2677 41.8915L64.2686 41.893C64.368 42.0562 64.4685 42.2212 64.5695 42.3882ZM50.6571 51.6667L43.3335 73.9582C45.5207 74.632 47.8331 75 50.2285 75C53.0707 75 55.7967 74.486 58.3335 73.5507C58.2686 73.4409 58.208 73.3247 58.1586 73.1983L50.6571 51.6667ZM73.5629 41.0111C73.5629 40.0524 73.4979 39.1627 73.3827 38.3334C75.4758 42.0421 76.6669 46.2983 76.6669 50.8257C76.6669 60.4325 71.3056 68.8198 63.3336 73.3334L71.5237 50.3378C73.0535 46.6229 73.5629 43.6524 73.5629 41.0111Z" fill="white"/>
</svg>
