<svg width="100" height="100" viewBox="0 0 100 100" fill="none" xmlns="http://www.w3.org/2000/svg">
<path fill-rule="evenodd" clip-rule="evenodd" d="M50 0C22.3858 0 0 22.3858 0 50C0 77.6142 22.3858 100 50 100C77.6142 100 100 77.6142 100 50C100 22.3858 77.6142 0 50 0ZM70.8369 32.8113C73.1317 33.441 74.939 35.2965 75.5523 37.6528C76.6669 41.9232 76.6669 50.8335 76.6669 50.8335C76.6669 50.8335 76.6669 59.7436 75.5523 64.0143C74.939 66.3706 73.1317 68.2261 70.8369 68.8561C66.6781 70.0002 50.0002 70.0002 50.0002 70.0002C50.0002 70.0002 33.3223 70.0002 29.1632 68.8561C26.8684 68.2261 25.0611 66.3706 24.4478 64.0143C23.3335 59.7436 23.3335 50.8335 23.3335 50.8335C23.3335 50.8335 23.3335 41.9232 24.4478 37.6528C25.0611 35.2965 26.8684 33.441 29.1632 32.8113C33.3223 31.6669 50.0002 31.6669 50.0002 31.6669C50.0002 31.6669 66.6781 31.6669 70.8369 32.8113Z" fill="white"/>
<path d="M45 59.9997V43.333L58.3333 51.6667L45 59.9997Z" fill="white"/>
</svg>
